<?xml version="1.0" encoding="UTF-8" standalone="no"?>
<!-- Created with Inkscape (http://www.inkscape.org/) -->
<svg
   xmlns:svg="http://www.w3.org/2000/svg"
   xmlns="http://www.w3.org/2000/svg"
   version="1.0"
   width="570"
   height="300"
   id="svg2443"
   xml:space="preserve"><defs
     id="defs2446"><clipPath
       id="clipPath2458"><path
         d="M 0,0 L 595.276,0 L 595.276,841.89 L 0,841.89 L 0,0 z"
         id="path2460" /></clipPath><clipPath
       id="clipPath2474"><path
         d="M 175.491,735.509 L 428.871,735.509 L 428.871,483.164 L 175.491,483.164 L 175.491,735.509 z"
         id="path2476" /></clipPath><clipPath
       id="clipPath2488"><path
         d="M 0,0 L 595.276,0 L 595.276,841.89 L 0,841.89 L 0,0 z"
         id="path2490" /></clipPath></defs><g
     transform="matrix(1.25,0,0,-1.25,-263.993,718.903)"
     id="g2452"><g
       transform="translate(-10.3083,-88.9094)"
       id="g2484"><g
         transform="matrix(10.098734,0,0,10.151339,-2018.502,-6075.1361)"
         clip-path="url(#clipPath2488)"
         id="g2486"><g
           transform="matrix(0.273758,0,0,0.273758,163.009,484.004)"
           id="g2544"><g
             transform="translate(263.957,656.942)"
             id="g2496"><path
               d="M 0,0 C -10.599,0 -19.193,-8.593 -19.193,-19.192 C -19.193,-29.791 -10.599,-38.384 0,-38.384 C 10.599,-38.384 19.192,-29.791 19.192,-19.192 C 19.192,-8.593 10.599,0 0,0"
               id="path2498"
               style="fill:#ed1c24;fill-opacity:1;fill-rule:nonzero;stroke:none" /></g><g
             transform="translate(278.039,635.813)"
             id="g2500"><path
               d="M 0,0 L -3.473,0.155 C -4.243,0.189 -4.824,0.844 -4.766,1.611 C -4.766,1.611 -4.287,8.181 -6.748,14.175 C -6.748,14.175 -6.938,14.492 -6.476,14.492 C -6.118,14.492 -5.613,14.325 -5.156,14.049 C -5.156,14.049 0.799,10.472 0.707,1.019 C 0.695,-0.214 0,0 0,0"
               id="path2502"
               style="fill:#ffffff;fill-opacity:1;fill-rule:nonzero;stroke:none" /></g><g
             transform="translate(280.995,607.867)"
             id="g2504"><path
               d="M 0,0 C -0.142,-0.173 -0.148,-0.989 -0.148,-1.649 C -0.148,-2.277 -0.145,-35.161 -0.148,-35.665 C -0.151,-36.066 -0.127,-36.609 0.029,-36.755 C 0.256,-36.965 0.558,-36.939 0.926,-36.945 C 1.266,-36.951 16.343,-36.945 16.853,-36.945 C 17.459,-36.945 18.195,-36.983 18.404,-36.842 C 18.555,-36.737 18.738,-36.077 18.911,-35.575 C 19.259,-34.546 20.728,-30.257 20.822,-29.992 C 20.947,-29.636 21.07,-29.224 20.927,-29.031 C 20.754,-28.797 20.154,-28.817 19.637,-28.82 C 19.39,-28.822 10.86,-28.82 10.024,-28.82 C 9.634,-28.82 9.38,-28.833 9.168,-28.633 C 8.936,-28.413 8.976,-28.036 8.976,-27.603 L 8.976,-0.253 C 8.976,0.201 9.004,0.632 8.788,0.815 C 8.574,0.994 8.234,0.998 7.859,0.948 C 7.558,0.908 0.9,0.333 0.74,0.32 C 0.279,0.282 0.154,0.188 0,0"
               id="path2506"
               style="fill:#000000;fill-opacity:1;fill-rule:nonzero;stroke:none" /></g><g
             transform="translate(358.127,607.709)"
             id="g2508"><path
               d="M 0,0 C 0,-0.553 -0.002,-35.845 -0.002,-36.178 C -0.002,-36.627 0.046,-36.746 0.211,-36.887 C 0.374,-37.029 0.624,-37.066 1.155,-37.036 C 1.251,-37.03 6.876,-36.702 6.948,-36.698 C 7.629,-36.663 8.62,-36.577 8.842,-36.364 C 9.089,-36.125 9.063,-35.635 9.063,-35.072 C 9.063,-34.747 9.061,-24.716 9.061,-24.476 C 9.061,-24.137 9.037,-23.807 9.22,-23.633 C 9.389,-23.474 9.914,-23.511 10.376,-23.511 L 17.637,-23.511 C 18.051,-23.511 18.14,-23.43 18.274,-23.288 C 18.411,-23.14 18.437,-22.955 18.437,-22.756 L 18.437,-16.671 C 18.437,-16.341 18.417,-16.108 18.252,-15.943 C 18.083,-15.774 17.973,-15.743 17.609,-15.743 C 17.504,-15.743 10.262,-15.744 10.016,-15.744 C 9.783,-15.744 9.662,-15.768 9.443,-15.642 C 9.226,-15.518 9.27,-15.15 9.27,-14.823 L 9.27,-8.345 C 9.27,-8.074 9.268,-7.762 9.353,-7.648 C 9.443,-7.52 9.835,-7.52 10.159,-7.52 L 20.614,-7.52 C 20.998,-7.52 21.328,-7.413 21.477,-7.204 C 21.606,-7.023 21.65,-6.746 21.564,-6.395 C 21.467,-6.009 20.228,-0.803 20.051,-0.052 C 19.966,0.302 19.92,0.674 19.717,0.819 C 19.518,0.964 19.079,0.983 18.665,0.983 C 17.605,0.983 1.318,0.992 0.865,0.992 C 0.594,0.992 0.463,0.967 0.274,0.788 C 0.068,0.594 0,0.351 0,0"
               id="path2510"
               style="fill:#000000;fill-opacity:1;fill-rule:nonzero;stroke:none" /></g><g
             transform="translate(241.371,646.066)"
             id="g2512"><path
               d="M 0,0 C -0.541,-0.268 -2.745,2.904 -7.816,2.454 C -12.888,2.005 -17.15,-1.747 -17.33,-8.679 C -17.51,-15.611 -11.908,-18.812 -6.747,-18.901 C -6.747,-18.901 -4.4,-18.899 -2.401,-17.959 C -1.991,-17.793 -1.481,-17.499 -1.063,-17.206 C -0.536,-16.836 -0.123,-16.485 0.107,-16.631 C 0.384,-16.808 0.164,-19.319 -0.158,-21.709 C -0.31,-22.833 -0.448,-23.838 -0.593,-24.649 C -0.726,-25.383 -0.853,-25.9 -0.96,-26.068 C -1.099,-26.287 -1.409,-26.41 -1.76,-26.551 C -3.413,-27.225 -10.337,-29.13 -17.923,-24.799 C -26.807,-19.728 -26.592,-10.358 -26.574,-7.689 C -26.555,-4.879 -25.203,3.475 -18.422,7.827 C -18.422,7.827 -14.28,10.959 -7.438,10.959 C -3.27,10.959 -1.575,10.079 -0.919,9.437 C -0.328,8.859 0.824,0.409 0,0"
               id="path2514"
               style="fill:#000000;fill-opacity:1;fill-rule:nonzero;stroke:none" /></g><g
             transform="translate(244.61,574.685)"
             id="g2516"><path
               d="M 0,0 C -0.198,0.294 -8.761,12.29 -8.929,12.529 L -8.958,12.76 L -8.833,12.89 C -7.669,13.39 -3.187,15.669 -2.986,21.79 C -2.756,28.829 -6.727,33.284 -16.428,33.751 C -23.86,34.109 -26.321,33.942 -27.298,33.864 C -27.597,33.842 -27.888,33.708 -28.051,33.526 C -28.195,33.365 -28.29,33.141 -28.29,32.764 C -28.29,32.233 -28.302,-2.65 -28.303,-3.062 C -28.303,-3.259 -28.199,-3.433 -28.1,-3.519 C -27.982,-3.619 -27.787,-3.659 -27.56,-3.638 C -27.143,-3.598 -21.071,-3.045 -20.549,-2.981 C -20.136,-2.933 -19.843,-2.922 -19.632,-2.686 C -19.455,-2.485 -19.506,-2.036 -19.501,-1.595 C -19.496,-1.22 -19.502,12.204 -19.5,12.456 C -19.5,12.561 -19.497,12.676 -19.36,12.721 C -19.222,12.766 -19.127,12.664 -19.087,12.601 C -18.854,12.242 -9.933,-1.655 -9.237,-2.747 C -8.912,-3.257 -8.573,-3.85 -8.261,-3.97 C -7.92,-4.101 -7.345,-3.867 -7.131,-3.809 L -0.164,-1.632 C 0.186,-1.523 0.43,-1.435 0.507,-1.198 C 0.618,-0.859 0.283,-0.416 0,0 M -19.405,15.657 C -19.483,15.741 -19.487,15.947 -19.487,16.127 L -19.487,25.483 C -19.487,25.581 -19.456,25.666 -19.401,25.727 C -19.338,25.797 -19.285,25.837 -19.143,25.854 C -17.684,26.025 -12.077,26.304 -12.163,20.81 C -12.247,15.338 -17.705,15.411 -19.136,15.531 C -19.253,15.546 -19.315,15.561 -19.405,15.657"
               id="path2518"
               style="fill:#000000;fill-opacity:1;fill-rule:nonzero;stroke:none" /></g><g
             transform="translate(298.382,634.917)"
             id="g2520"><path
               d="M 0,0 C 0.057,0.295 0.114,0.701 0.314,0.702 C 0.599,0.704 0.645,0.387 0.751,0.127 C 1.234,-1.064 6.252,-14.843 6.252,-14.843 C 6.252,-14.843 6.453,-15.492 6.708,-15.616 C 6.935,-15.727 7.298,-15.698 7.678,-15.699 C 8.408,-15.7 10.154,-15.695 10.651,-15.7 C 11.023,-15.704 11.474,-15.704 11.679,-15.557 C 11.888,-15.407 11.963,-15.147 12.079,-14.843 C 12.474,-13.787 17.318,-1.302 17.855,0.127 C 17.954,0.39 18.046,0.701 18.292,0.703 C 18.501,0.705 18.549,0.295 18.607,0.001 C 18.865,-1.327 21.054,-13.451 21.349,-15.302 C 21.402,-15.648 21.478,-15.995 21.639,-16.152 C 21.824,-16.33 22.172,-16.241 22.508,-16.194 C 23.802,-16.019 28.68,-15.314 29.322,-15.231 C 29.648,-15.187 29.98,-15.118 30.082,-14.871 C 30.141,-14.728 29.998,-14.13 29.901,-13.667 C 29.191,-10.264 23.021,19.775 22.741,21.086 C 22.665,21.428 22.581,21.612 22.351,21.78 C 22.172,21.913 21.752,21.942 21.311,21.942 C 20.897,21.942 18.678,21.933 18.416,21.933 C 18.036,21.933 17.626,21.944 17.439,21.838 C 17.229,21.72 17.101,21.403 16.988,21.076 C 16.561,19.871 9.217,0.32 9.217,0.32 C 9.217,0.32 2.272,19.199 1.566,21.12 C 1.445,21.449 1.365,21.68 1.152,21.835 C 0.995,21.947 0.534,21.976 0.14,21.976 C -0.633,21.976 -2.152,21.972 -2.749,21.976 C -3.125,21.979 -3.529,22.001 -3.743,21.873 C -3.988,21.727 -4.095,21.496 -4.176,21.12 C -5.243,16.223 -8.624,-0.255 -11.418,-13.677 C -11.516,-14.14 -11.694,-14.698 -11.549,-14.935 C -11.412,-15.158 -11.139,-15.199 -10.841,-15.24 C -9.389,-15.438 -4.658,-16.095 -4.028,-16.204 C -3.694,-16.262 -3.392,-16.314 -3.196,-16.176 C -3.042,-16.068 -2.932,-15.666 -2.867,-15.311 C -2.217,-11.781 -0.337,-1.703 0,0"
               id="path2522"
               style="fill:#000000;fill-opacity:1;fill-rule:nonzero;stroke:none" /></g><g
             transform="translate(335.932,619.317)"
             id="g2524"><path
               d="M 0,0 C 0,0.125 -0.008,36.148 -0.008,36.274 C -0.008,36.405 0.068,36.55 0.155,36.651 C 0.237,36.744 0.4,36.823 0.509,36.832 C 0.611,36.84 8.534,37.481 8.868,37.513 C 9.031,37.528 9.224,37.45 9.336,37.324 C 9.459,37.192 9.499,37.046 9.499,36.914 C 9.499,36.705 9.501,1.013 9.495,0.756 C 9.493,0.554 9.409,0.36 9.322,0.288 C 9.212,0.193 9.123,0.126 8.831,0.1 C 8.431,0.065 1.167,-0.565 0.684,-0.609 C 0.533,-0.622 0.324,-0.584 0.179,-0.438 C 0.062,-0.319 0.002,-0.16 0,0"
               id="path2526"
               style="fill:#000000;fill-opacity:1;fill-rule:nonzero;stroke:none" /></g><g
             transform="translate(327.406,607.374)"
             id="g2528"><path
               d="M 0,0 C 0,-0.18 -0.002,-33.987 -0.002,-34.752 C -0.002,-35.435 0.113,-35.809 0.352,-36.047 C 0.545,-36.241 1,-36.336 1.599,-36.336 C 1.891,-36.336 19.737,-36.337 19.737,-36.337 C 19.737,-36.337 21.175,-36.348 21.395,-36.178 C 21.751,-35.901 22.004,-34.948 22.004,-34.948 L 23.69,-30.047 C 23.69,-30.047 24.078,-29.15 23.841,-28.834 C 23.521,-28.41 22.644,-28.492 22.644,-28.492 C 22.644,-28.492 11.048,-28.491 10.421,-28.492 C 10.004,-28.493 9.582,-28.54 9.375,-28.333 C 9.194,-28.155 9.194,-27.663 9.192,-27.225 L 9.192,-22.429 C 9.192,-22.043 9.173,-21.579 9.31,-21.394 C 9.427,-21.237 9.795,-21.264 10.131,-21.264 L 17.468,-21.264 C 17.88,-21.264 18.488,-21.316 18.737,-21.093 C 19.019,-20.844 18.973,-20.526 18.973,-20.079 C 18.973,-19.874 18.971,-14.913 18.971,-14.615 C 18.971,-14.348 19.033,-13.786 18.757,-13.555 C 18.472,-13.315 18.043,-13.357 17.562,-13.357 C 17.238,-13.357 10.992,-13.356 10.421,-13.357 C 10.071,-13.357 9.676,-13.388 9.527,-13.23 C 9.415,-13.107 9.423,-12.582 9.423,-12.171 C 9.423,-11.689 9.421,-8.053 9.423,-7.856 C 9.433,-7.474 9.401,-6.968 9.499,-6.842 C 9.586,-6.732 9.92,-6.72 10.23,-6.718 C 10.654,-6.717 21.008,-6.718 21.543,-6.718 C 22.125,-6.718 22.501,-6.684 22.674,-6.456 C 22.934,-6.122 22.879,-5.969 22.815,-5.607 C 22.749,-5.245 21.598,0.112 21.598,0.112 C 21.598,0.112 21.505,0.594 21.33,0.735 C 21.051,0.966 20.2,0.965 20.2,0.965 L 1.022,0.965 C 0.642,0.965 0.427,0.898 0.237,0.697 C 0.058,0.51 0,0.318 0,0"
               id="path2530"
               style="fill:#000000;fill-opacity:1;fill-rule:nonzero;stroke:none" /></g><g
             transform="translate(307.645,571.341)"
             id="g2532"><path
               d="M 0,0 C 0,0.126 -0.008,36.149 -0.008,36.274 C -0.004,36.406 0.068,36.551 0.159,36.651 C 0.237,36.743 0.4,36.824 0.511,36.833 C 0.611,36.84 8.536,37.482 8.868,37.513 C 9.033,37.529 9.224,37.45 9.336,37.325 C 9.459,37.193 9.499,37.045 9.499,36.914 C 9.499,36.706 9.503,1.013 9.499,0.756 C 9.493,0.555 9.409,0.361 9.322,0.289 C 9.214,0.193 9.123,0.127 8.833,0.1 C 8.433,0.066 1.167,-0.565 0.684,-0.609 C 0.533,-0.622 0.326,-0.584 0.181,-0.439 C 0.062,-0.319 0.002,-0.159 0,0"
               id="path2534"
               style="fill:#000000;fill-opacity:1;fill-rule:nonzero;stroke:none" /></g><g
             transform="translate(250.642,607.374)"
             id="g2536"><path
               d="M 0,0 C 0,-0.18 -0.001,-33.987 -0.001,-34.752 C -0.001,-35.435 0.115,-35.809 0.352,-36.047 C 0.545,-36.241 1.001,-36.336 1.599,-36.336 C 1.892,-36.336 19.737,-36.337 19.737,-36.337 C 19.737,-36.337 21.174,-36.348 21.395,-36.178 C 21.751,-35.901 22.005,-34.948 22.005,-34.948 L 23.689,-30.047 C 23.689,-30.047 24.077,-29.15 23.84,-28.834 C 23.522,-28.41 22.645,-28.492 22.645,-28.492 C 22.645,-28.492 11.048,-28.491 10.422,-28.492 C 10.006,-28.493 9.581,-28.54 9.374,-28.333 C 9.196,-28.155 9.194,-27.663 9.193,-27.225 C 9.191,-26.985 9.193,-22.711 9.193,-22.429 C 9.193,-22.043 9.174,-21.579 9.311,-21.394 C 9.426,-21.237 9.794,-21.264 10.132,-21.264 L 17.468,-21.264 C 17.882,-21.264 18.489,-21.316 18.738,-21.093 C 19.02,-20.844 18.973,-20.526 18.973,-20.079 C 18.973,-19.874 18.971,-14.913 18.971,-14.615 C 18.971,-14.348 19.032,-13.786 18.757,-13.555 C 18.473,-13.315 18.043,-13.357 17.563,-13.357 C 17.238,-13.357 10.992,-13.356 10.42,-13.357 C 10.07,-13.357 9.675,-13.388 9.53,-13.23 C 9.417,-13.107 9.424,-12.582 9.424,-12.171 C 9.424,-11.689 9.42,-8.053 9.424,-7.856 C 9.433,-7.474 9.399,-6.968 9.499,-6.842 C 9.587,-6.732 9.922,-6.72 10.229,-6.718 C 10.655,-6.717 21.01,-6.718 21.545,-6.718 C 21.964,-6.718 22.452,-6.764 22.669,-6.513 C 22.944,-6.192 22.879,-5.969 22.814,-5.607 C 22.749,-5.245 21.599,0.112 21.599,0.112 C 21.599,0.112 21.506,0.594 21.331,0.735 C 21.051,0.966 20.2,0.965 20.2,0.965 L 1.023,0.965 C 0.642,0.965 0.427,0.898 0.237,0.697 C 0.059,0.51 0,0.318 0,0"
               id="path2538"
               style="fill:#000000;fill-opacity:1;fill-rule:nonzero;stroke:none" /></g><g
             transform="translate(379.323,646.066)"
             id="g2540"><path
               d="M 0,0 C -0.543,-0.268 -2.748,2.904 -7.817,2.454 C -12.887,2.005 -17.15,-1.747 -17.331,-8.679 C -17.512,-15.611 -11.909,-18.812 -6.747,-18.901 C -6.747,-18.901 -4.4,-18.899 -2.402,-17.959 C -1.992,-17.793 -1.481,-17.499 -1.064,-17.206 C -0.537,-16.836 -0.123,-16.485 0.105,-16.631 C 0.384,-16.808 0.163,-19.319 -0.157,-21.709 C -0.31,-22.833 -0.449,-23.838 -0.595,-24.649 C -0.726,-25.383 -0.853,-25.9 -0.96,-26.068 C -1.098,-26.287 -1.41,-26.41 -1.762,-26.551 C -3.414,-27.225 -10.338,-29.13 -17.924,-24.799 C -26.808,-19.728 -26.593,-10.358 -26.575,-7.689 C -26.555,-4.879 -25.205,3.475 -18.421,7.827 C -18.421,7.827 -14.281,10.959 -7.439,10.959 C -3.271,10.959 -1.577,10.079 -0.921,9.437 C -0.328,8.859 0.823,0.409 0,0"
               id="path2542"
               style="fill:#000000;fill-opacity:1;fill-rule:nonzero;stroke:none" /></g></g></g></g></g></svg>